<?xml version="1.0" encoding="UTF-8" standalone="no"?>
<svg
   xmlns:dc="http://purl.org/dc/elements/1.1/"
   xmlns:cc="http://creativecommons.org/ns#"
   xmlns:rdf="http://www.w3.org/1999/02/22-rdf-syntax-ns#"
   xmlns:svg="http://www.w3.org/2000/svg"
   xmlns="http://www.w3.org/2000/svg"
   xmlns:xlink="http://www.w3.org/1999/xlink"
   id="svg2"
   viewBox="0 0 232 232"
   height="232"
   width="232"
   version="1.1">
  <metadata
     id="metadata685">
    <rdf:RDF>
      <cc:Work
         rdf:about="">
        <dc:format>image/svg+xml</dc:format>
        <dc:type
           rdf:resource="http://purl.org/dc/dcmitype/StillImage" />
        <dc:title></dc:title>
      </cc:Work>
    </rdf:RDF>
  </metadata>
  <desc
     id="desc4" />
  <rect
     style="fill:#ffffff"
     y="0"
     x="0"
     id="rect6"
     cy="0"
     cx="0"
     height="232"
     width="232" />
  <defs
     id="defs8">
    <rect
       y="0"
       x="0"
       height="8"
       width="8"
       id="p" />
  </defs>
  <g
     style="fill:#000000"
     transform="translate(-16,-16)"
     id="g11">
    <use
       height="100%"
       width="100%"
       id="use27"
       xlink:href="#p"
       y="96"
       x="32" />
    <use
       height="100%"
       width="100%"
       id="use29"
       xlink:href="#p"
       y="120"
       x="32" />
    <use
       height="100%"
       width="100%"
       id="use31"
       xlink:href="#p"
       y="136"
       x="32" />
    <use
       height="100%"
       width="100%"
       id="use33"
       xlink:href="#p"
       y="152"
       x="32" />
    <use
       height="100%"
       width="100%"
       id="use53"
       xlink:href="#p"
       y="96"
       x="40" />
    <use
       height="100%"
       width="100%"
       id="use55"
       xlink:href="#p"
       y="120"
       x="40" />
    <use
       height="100%"
       width="100%"
       id="use57"
       xlink:href="#p"
       y="144"
       x="40" />
    <use
       height="100%"
       width="100%"
       id="use73"
       xlink:href="#p"
       y="152"
       x="48" />
    <use
       height="100%"
       width="100%"
       id="use75"
       xlink:href="#p"
       y="160"
       x="48" />
    <use
       height="100%"
       width="100%"
       id="use97"
       xlink:href="#p"
       y="96"
       x="56" />
    <use
       height="100%"
       width="100%"
       id="use99"
       xlink:href="#p"
       y="104"
       x="56" />
    <use
       height="100%"
       width="100%"
       id="use101"
       xlink:href="#p"
       y="120"
       x="56" />
    <use
       height="100%"
       width="100%"
       id="use103"
       xlink:href="#p"
       y="128"
       x="56" />
    <use
       height="100%"
       width="100%"
       id="use105"
       xlink:href="#p"
       y="144"
       x="56" />
    <use
       height="100%"
       width="100%"
       id="use107"
       xlink:href="#p"
       y="152"
       x="56" />
    <use
       height="100%"
       width="100%"
       id="use129"
       xlink:href="#p"
       y="112"
       x="64" />
    <use
       height="100%"
       width="100%"
       id="use131"
       xlink:href="#p"
       y="128"
       x="64" />
    <use
       height="100%"
       width="100%"
       id="use147"
       xlink:href="#p"
       y="104"
       x="72" />
    <use
       height="100%"
       width="100%"
       id="use149"
       xlink:href="#p"
       y="112"
       x="72" />
    <use
       height="100%"
       width="100%"
       id="use151"
       xlink:href="#p"
       y="120"
       x="72" />
    <use
       height="100%"
       width="100%"
       id="use153"
       xlink:href="#p"
       y="152"
       x="72" />
    <use
       height="100%"
       width="100%"
       id="use173"
       xlink:href="#p"
       y="96"
       x="80" />
    <use
       height="100%"
       width="100%"
       id="use175"
       xlink:href="#p"
       y="112"
       x="80" />
    <use
       height="100%"
       width="100%"
       id="use177"
       xlink:href="#p"
       y="128"
       x="80" />
    <use
       height="100%"
       width="100%"
       id="use179"
       xlink:href="#p"
       y="144"
       x="80" />
    <use
       height="100%"
       width="100%"
       id="use181"
       xlink:href="#p"
       y="160"
       x="80" />
    <use
       height="100%"
       width="100%"
       id="use197"
       xlink:href="#p"
       y="96"
       x="88" />
    <use
       height="100%"
       width="100%"
       id="use199"
       xlink:href="#p"
       y="120"
       x="88" />
    <use
       height="100%"
       width="100%"
       id="use201"
       xlink:href="#p"
       y="128"
       x="88" />
    <use
       height="100%"
       width="100%"
       id="use203"
       xlink:href="#p"
       y="136"
       x="88" />
    <use
       height="100%"
       width="100%"
       id="use205"
       xlink:href="#p"
       y="144"
       x="88" />
    <use
       height="100%"
       width="100%"
       id="use207"
       xlink:href="#p"
       y="152"
       x="88" />
    <use
       height="100%"
       width="100%"
       id="use209"
       xlink:href="#p"
       y="40"
       x="96" />
    <use
       height="100%"
       width="100%"
       id="use211"
       xlink:href="#p"
       y="48"
       x="96" />
    <use
       height="100%"
       width="100%"
       id="use213"
       xlink:href="#p"
       y="64"
       x="96" />
    <use
       height="100%"
       width="100%"
       id="use215"
       xlink:href="#p"
       y="72"
       x="96" />
    <use
       height="100%"
       width="100%"
       id="use217"
       xlink:href="#p"
       y="80"
       x="96" />
    <use
       height="100%"
       width="100%"
       id="use219"
       xlink:href="#p"
       y="88"
       x="96" />
    <use
       height="100%"
       width="100%"
       id="use221"
       xlink:href="#p"
       y="112"
       x="96" />
    <use
       height="100%"
       width="100%"
       id="use223"
       xlink:href="#p"
       y="120"
       x="96" />
    <use
       height="100%"
       width="100%"
       id="use225"
       xlink:href="#p"
       y="136"
       x="96" />
    <use
       height="100%"
       width="100%"
       id="use227"
       xlink:href="#p"
       y="144"
       x="96" />
    <use
       height="100%"
       width="100%"
       id="use229"
       xlink:href="#p"
       y="160"
       x="96" />
    <use
       height="100%"
       width="100%"
       id="use231"
       xlink:href="#p"
       y="168"
       x="96" />
    <use
       height="100%"
       width="100%"
       id="use233"
       xlink:href="#p"
       y="176"
       x="96" />
    <use
       height="100%"
       width="100%"
       id="use235"
       xlink:href="#p"
       y="200"
       x="96" />
    <use
       height="100%"
       width="100%"
       id="use237"
       xlink:href="#p"
       y="216"
       x="96" />
    <use
       height="100%"
       width="100%"
       id="use239"
       xlink:href="#p"
       y="224"
       x="96" />
    <use
       height="100%"
       width="100%"
       id="use241"
       xlink:href="#p"
       y="32"
       x="104" />
    <use
       height="100%"
       width="100%"
       id="use243"
       xlink:href="#p"
       y="56"
       x="104" />
    <use
       height="100%"
       width="100%"
       id="use245"
       xlink:href="#p"
       y="64"
       x="104" />
    <use
       height="100%"
       width="100%"
       id="use247"
       xlink:href="#p"
       y="104"
       x="104" />
    <use
       height="100%"
       width="100%"
       id="use249"
       xlink:href="#p"
       y="120"
       x="104" />
    <use
       height="100%"
       width="100%"
       id="use251"
       xlink:href="#p"
       y="136"
       x="104" />
    <use
       height="100%"
       width="100%"
       id="use253"
       xlink:href="#p"
       y="144"
       x="104" />
    <use
       height="100%"
       width="100%"
       id="use255"
       xlink:href="#p"
       y="152"
       x="104" />
    <use
       height="100%"
       width="100%"
       id="use257"
       xlink:href="#p"
       y="160"
       x="104" />
    <use
       height="100%"
       width="100%"
       id="use259"
       xlink:href="#p"
       y="168"
       x="104" />
    <use
       height="100%"
       width="100%"
       id="use261"
       xlink:href="#p"
       y="176"
       x="104" />
    <use
       height="100%"
       width="100%"
       id="use263"
       xlink:href="#p"
       y="208"
       x="104" />
    <use
       height="100%"
       width="100%"
       id="use265"
       xlink:href="#p"
       y="216"
       x="104" />
    <use
       height="100%"
       width="100%"
       id="use267"
       xlink:href="#p"
       y="32"
       x="112" />
    <use
       height="100%"
       width="100%"
       id="use269"
       xlink:href="#p"
       y="72"
       x="112" />
    <use
       height="100%"
       width="100%"
       id="use271"
       xlink:href="#p"
       y="80"
       x="112" />
    <use
       height="100%"
       width="100%"
       id="use273"
       xlink:href="#p"
       y="88"
       x="112" />
    <use
       height="100%"
       width="100%"
       id="use275"
       xlink:href="#p"
       y="120"
       x="112" />
    <use
       height="100%"
       width="100%"
       id="use277"
       xlink:href="#p"
       y="128"
       x="112" />
    <use
       height="100%"
       width="100%"
       id="use279"
       xlink:href="#p"
       y="160"
       x="112" />
    <use
       height="100%"
       width="100%"
       id="use281"
       xlink:href="#p"
       y="208"
       x="112" />
    <use
       height="100%"
       width="100%"
       id="use283"
       xlink:href="#p"
       y="224"
       x="112" />
    <use
       height="100%"
       width="100%"
       id="use285"
       xlink:href="#p"
       y="32"
       x="120" />
    <use
       height="100%"
       width="100%"
       id="use287"
       xlink:href="#p"
       y="40"
       x="120" />
    <use
       height="100%"
       width="100%"
       id="use289"
       xlink:href="#p"
       y="48"
       x="120" />
    <use
       height="100%"
       width="100%"
       id="use291"
       xlink:href="#p"
       y="56"
       x="120" />
    <use
       height="100%"
       width="100%"
       id="use293"
       xlink:href="#p"
       y="64"
       x="120" />
    <use
       height="100%"
       width="100%"
       id="use295"
       xlink:href="#p"
       y="88"
       x="120" />
    <use
       height="100%"
       width="100%"
       id="use297"
       xlink:href="#p"
       y="96"
       x="120" />
    <use
       height="100%"
       width="100%"
       id="use299"
       xlink:href="#p"
       y="120"
       x="120" />
    <use
       height="100%"
       width="100%"
       id="use301"
       xlink:href="#p"
       y="128"
       x="120" />
    <use
       height="100%"
       width="100%"
       id="use303"
       xlink:href="#p"
       y="144"
       x="120" />
    <use
       height="100%"
       width="100%"
       id="use305"
       xlink:href="#p"
       y="152"
       x="120" />
    <use
       height="100%"
       width="100%"
       id="use307"
       xlink:href="#p"
       y="160"
       x="120" />
    <use
       height="100%"
       width="100%"
       id="use309"
       xlink:href="#p"
       y="168"
       x="120" />
    <use
       height="100%"
       width="100%"
       id="use311"
       xlink:href="#p"
       y="184"
       x="120" />
    <use
       height="100%"
       width="100%"
       id="use313"
       xlink:href="#p"
       y="192"
       x="120" />
    <use
       height="100%"
       width="100%"
       id="use315"
       xlink:href="#p"
       y="224"
       x="120" />
    <use
       height="100%"
       width="100%"
       id="use317"
       xlink:href="#p"
       y="32"
       x="128" />
    <use
       height="100%"
       width="100%"
       id="use319"
       xlink:href="#p"
       y="40"
       x="128" />
    <use
       height="100%"
       width="100%"
       id="use321"
       xlink:href="#p"
       y="80"
       x="128" />
    <use
       height="100%"
       width="100%"
       id="use323"
       xlink:href="#p"
       y="88"
       x="128" />
    <use
       height="100%"
       width="100%"
       id="use325"
       xlink:href="#p"
       y="96"
       x="128" />
    <use
       height="100%"
       width="100%"
       id="use327"
       xlink:href="#p"
       y="104"
       x="128" />
    <use
       height="100%"
       width="100%"
       id="use329"
       xlink:href="#p"
       y="112"
       x="128" />
    <use
       height="100%"
       width="100%"
       id="use331"
       xlink:href="#p"
       y="120"
       x="128" />
    <use
       height="100%"
       width="100%"
       id="use333"
       xlink:href="#p"
       y="128"
       x="128" />
    <use
       height="100%"
       width="100%"
       id="use335"
       xlink:href="#p"
       y="144"
       x="128" />
    <use
       height="100%"
       width="100%"
       id="use337"
       xlink:href="#p"
       y="152"
       x="128" />
    <use
       height="100%"
       width="100%"
       id="use339"
       xlink:href="#p"
       y="160"
       x="128" />
    <use
       height="100%"
       width="100%"
       id="use341"
       xlink:href="#p"
       y="168"
       x="128" />
    <use
       height="100%"
       width="100%"
       id="use343"
       xlink:href="#p"
       y="184"
       x="128" />
    <use
       height="100%"
       width="100%"
       id="use345"
       xlink:href="#p"
       y="192"
       x="128" />
    <use
       height="100%"
       width="100%"
       id="use347"
       xlink:href="#p"
       y="200"
       x="128" />
    <use
       height="100%"
       width="100%"
       id="use349"
       xlink:href="#p"
       y="224"
       x="128" />
    <use
       height="100%"
       width="100%"
       id="use351"
       xlink:href="#p"
       y="40"
       x="136" />
    <use
       height="100%"
       width="100%"
       id="use353"
       xlink:href="#p"
       y="64"
       x="136" />
    <use
       height="100%"
       width="100%"
       id="use355"
       xlink:href="#p"
       y="72"
       x="136" />
    <use
       height="100%"
       width="100%"
       id="use357"
       xlink:href="#p"
       y="96"
       x="136" />
    <use
       height="100%"
       width="100%"
       id="use359"
       xlink:href="#p"
       y="104"
       x="136" />
    <use
       height="100%"
       width="100%"
       id="use361"
       xlink:href="#p"
       y="120"
       x="136" />
    <use
       height="100%"
       width="100%"
       id="use363"
       xlink:href="#p"
       y="128"
       x="136" />
    <use
       height="100%"
       width="100%"
       id="use365"
       xlink:href="#p"
       y="144"
       x="136" />
    <use
       height="100%"
       width="100%"
       id="use367"
       xlink:href="#p"
       y="152"
       x="136" />
    <use
       height="100%"
       width="100%"
       id="use369"
       xlink:href="#p"
       y="192"
       x="136" />
    <use
       height="100%"
       width="100%"
       id="use371"
       xlink:href="#p"
       y="216"
       x="136" />
    <use
       height="100%"
       width="100%"
       id="use373"
       xlink:href="#p"
       y="224"
       x="136" />
    <use
       height="100%"
       width="100%"
       id="use375"
       xlink:href="#p"
       y="32"
       x="144" />
    <use
       height="100%"
       width="100%"
       id="use377"
       xlink:href="#p"
       y="40"
       x="144" />
    <use
       height="100%"
       width="100%"
       id="use379"
       xlink:href="#p"
       y="48"
       x="144" />
    <use
       height="100%"
       width="100%"
       id="use381"
       xlink:href="#p"
       y="56"
       x="144" />
    <use
       height="100%"
       width="100%"
       id="use383"
       xlink:href="#p"
       y="64"
       x="144" />
    <use
       height="100%"
       width="100%"
       id="use385"
       xlink:href="#p"
       y="80"
       x="144" />
    <use
       height="100%"
       width="100%"
       id="use387"
       xlink:href="#p"
       y="88"
       x="144" />
    <use
       height="100%"
       width="100%"
       id="use389"
       xlink:href="#p"
       y="96"
       x="144" />
    <use
       height="100%"
       width="100%"
       id="use391"
       xlink:href="#p"
       y="104"
       x="144" />
    <use
       height="100%"
       width="100%"
       id="use393"
       xlink:href="#p"
       y="112"
       x="144" />
    <use
       height="100%"
       width="100%"
       id="use395"
       xlink:href="#p"
       y="120"
       x="144" />
    <use
       height="100%"
       width="100%"
       id="use397"
       xlink:href="#p"
       y="136"
       x="144" />
    <use
       height="100%"
       width="100%"
       id="use399"
       xlink:href="#p"
       y="152"
       x="144" />
    <use
       height="100%"
       width="100%"
       id="use401"
       xlink:href="#p"
       y="160"
       x="144" />
    <use
       height="100%"
       width="100%"
       id="use403"
       xlink:href="#p"
       y="168"
       x="144" />
    <use
       height="100%"
       width="100%"
       id="use405"
       xlink:href="#p"
       y="184"
       x="144" />
    <use
       height="100%"
       width="100%"
       id="use407"
       xlink:href="#p"
       y="192"
       x="144" />
    <use
       height="100%"
       width="100%"
       id="use409"
       xlink:href="#p"
       y="208"
       x="144" />
    <use
       height="100%"
       width="100%"
       id="use411"
       xlink:href="#p"
       y="32"
       x="152" />
    <use
       height="100%"
       width="100%"
       id="use413"
       xlink:href="#p"
       y="40"
       x="152" />
    <use
       height="100%"
       width="100%"
       id="use415"
       xlink:href="#p"
       y="48"
       x="152" />
    <use
       height="100%"
       width="100%"
       id="use417"
       xlink:href="#p"
       y="64"
       x="152" />
    <use
       height="100%"
       width="100%"
       id="use419"
       xlink:href="#p"
       y="72"
       x="152" />
    <use
       height="100%"
       width="100%"
       id="use421"
       xlink:href="#p"
       y="88"
       x="152" />
    <use
       height="100%"
       width="100%"
       id="use423"
       xlink:href="#p"
       y="152"
       x="152" />
    <use
       height="100%"
       width="100%"
       id="use425"
       xlink:href="#p"
       y="160"
       x="152" />
    <use
       height="100%"
       width="100%"
       id="use427"
       xlink:href="#p"
       y="168"
       x="152" />
    <use
       height="100%"
       width="100%"
       id="use429"
       xlink:href="#p"
       y="176"
       x="152" />
    <use
       height="100%"
       width="100%"
       id="use431"
       xlink:href="#p"
       y="184"
       x="152" />
    <use
       height="100%"
       width="100%"
       id="use433"
       xlink:href="#p"
       y="200"
       x="152" />
    <use
       height="100%"
       width="100%"
       id="use435"
       xlink:href="#p"
       y="208"
       x="152" />
    <use
       height="100%"
       width="100%"
       id="use437"
       xlink:href="#p"
       y="216"
       x="152" />
    <use
       height="100%"
       width="100%"
       id="use439"
       xlink:href="#p"
       y="224"
       x="152" />
    <use
       height="100%"
       width="100%"
       id="use441"
       xlink:href="#p"
       y="40"
       x="160" />
    <use
       height="100%"
       width="100%"
       id="use443"
       xlink:href="#p"
       y="64"
       x="160" />
    <use
       height="100%"
       width="100%"
       id="use445"
       xlink:href="#p"
       y="72"
       x="160" />
    <use
       height="100%"
       width="100%"
       id="use447"
       xlink:href="#p"
       y="80"
       x="160" />
    <use
       height="100%"
       width="100%"
       id="use449"
       xlink:href="#p"
       y="88"
       x="160" />
    <use
       height="100%"
       width="100%"
       id="use451"
       xlink:href="#p"
       y="96"
       x="160" />
    <use
       height="100%"
       width="100%"
       id="use453"
       xlink:href="#p"
       y="104"
       x="160" />
    <use
       height="100%"
       width="100%"
       id="use455"
       xlink:href="#p"
       y="152"
       x="160" />
    <use
       height="100%"
       width="100%"
       id="use457"
       xlink:href="#p"
       y="160"
       x="160" />
    <use
       height="100%"
       width="100%"
       id="use459"
       xlink:href="#p"
       y="168"
       x="160" />
    <use
       height="100%"
       width="100%"
       id="use461"
       xlink:href="#p"
       y="176"
       x="160" />
    <use
       height="100%"
       width="100%"
       id="use463"
       xlink:href="#p"
       y="184"
       x="160" />
    <use
       height="100%"
       width="100%"
       id="use465"
       xlink:href="#p"
       y="192"
       x="160" />
    <use
       height="100%"
       width="100%"
       id="use467"
       xlink:href="#p"
       y="208"
       x="160" />
    <use
       height="100%"
       width="100%"
       id="use469"
       xlink:href="#p"
       y="216"
       x="160" />
    <use
       height="100%"
       width="100%"
       id="use471"
       xlink:href="#p"
       y="224"
       x="160" />
    <use
       height="100%"
       width="100%"
       id="use473"
       xlink:href="#p"
       y="104"
       x="168" />
    <use
       height="100%"
       width="100%"
       id="use475"
       xlink:href="#p"
       y="112"
       x="168" />
    <use
       height="100%"
       width="100%"
       id="use477"
       xlink:href="#p"
       y="120"
       x="168" />
    <use
       height="100%"
       width="100%"
       id="use479"
       xlink:href="#p"
       y="128"
       x="168" />
    <use
       height="100%"
       width="100%"
       id="use481"
       xlink:href="#p"
       y="144"
       x="168" />
    <use
       height="100%"
       width="100%"
       id="use483"
       xlink:href="#p"
       y="160"
       x="168" />
    <use
       height="100%"
       width="100%"
       id="use485"
       xlink:href="#p"
       y="192"
       x="168" />
    <use
       height="100%"
       width="100%"
       id="use487"
       xlink:href="#p"
       y="224"
       x="168" />
    <use
       height="100%"
       width="100%"
       id="use503"
       xlink:href="#p"
       y="96"
       x="176" />
    <use
       height="100%"
       width="100%"
       id="use505"
       xlink:href="#p"
       y="104"
       x="176" />
    <use
       height="100%"
       width="100%"
       id="use507"
       xlink:href="#p"
       y="120"
       x="176" />
    <use
       height="100%"
       width="100%"
       id="use509"
       xlink:href="#p"
       y="128"
       x="176" />
    <use
       height="100%"
       width="100%"
       id="use511"
       xlink:href="#p"
       y="136"
       x="176" />
    <use
       height="100%"
       width="100%"
       id="use513"
       xlink:href="#p"
       y="160"
       x="176" />
    <use
       height="100%"
       width="100%"
       id="use515"
       xlink:href="#p"
       y="176"
       x="176" />
    <use
       height="100%"
       width="100%"
       id="use517"
       xlink:href="#p"
       y="192"
       x="176" />
    <use
       height="100%"
       width="100%"
       id="use519"
       xlink:href="#p"
       y="224"
       x="176" />
    <use
       height="100%"
       width="100%"
       id="use525"
       xlink:href="#p"
       y="96"
       x="184" />
    <use
       height="100%"
       width="100%"
       id="use527"
       xlink:href="#p"
       y="112"
       x="184" />
    <use
       height="100%"
       width="100%"
       id="use529"
       xlink:href="#p"
       y="120"
       x="184" />
    <use
       height="100%"
       width="100%"
       id="use531"
       xlink:href="#p"
       y="128"
       x="184" />
    <use
       height="100%"
       width="100%"
       id="use533"
       xlink:href="#p"
       y="136"
       x="184" />
    <use
       height="100%"
       width="100%"
       id="use535"
       xlink:href="#p"
       y="144"
       x="184" />
    <use
       height="100%"
       width="100%"
       id="use537"
       xlink:href="#p"
       y="160"
       x="184" />
    <use
       height="100%"
       width="100%"
       id="use539"
       xlink:href="#p"
       y="192"
       x="184" />
    <use
       height="100%"
       width="100%"
       id="use541"
       xlink:href="#p"
       y="200"
       x="184" />
    <use
       height="100%"
       width="100%"
       id="use543"
       xlink:href="#p"
       y="208"
       x="184" />
    <use
       height="100%"
       width="100%"
       id="use545"
       xlink:href="#p"
       y="224"
       x="184" />
    <use
       height="100%"
       width="100%"
       id="use557"
       xlink:href="#p"
       y="96"
       x="192" />
    <use
       height="100%"
       width="100%"
       id="use559"
       xlink:href="#p"
       y="120"
       x="192" />
    <use
       height="100%"
       width="100%"
       id="use561"
       xlink:href="#p"
       y="144"
       x="192" />
    <use
       height="100%"
       width="100%"
       id="use563"
       xlink:href="#p"
       y="152"
       x="192" />
    <use
       height="100%"
       width="100%"
       id="use565"
       xlink:href="#p"
       y="160"
       x="192" />
    <use
       height="100%"
       width="100%"
       id="use567"
       xlink:href="#p"
       y="168"
       x="192" />
    <use
       height="100%"
       width="100%"
       id="use569"
       xlink:href="#p"
       y="176"
       x="192" />
    <use
       height="100%"
       width="100%"
       id="use571"
       xlink:href="#p"
       y="184"
       x="192" />
    <use
       height="100%"
       width="100%"
       id="use573"
       xlink:href="#p"
       y="192"
       x="192" />
    <use
       height="100%"
       width="100%"
       id="use575"
       xlink:href="#p"
       y="200"
       x="192" />
    <use
       height="100%"
       width="100%"
       id="use577"
       xlink:href="#p"
       y="208"
       x="192" />
    <use
       height="100%"
       width="100%"
       id="use589"
       xlink:href="#p"
       y="128"
       x="200" />
    <use
       height="100%"
       width="100%"
       id="use591"
       xlink:href="#p"
       y="136"
       x="200" />
    <use
       height="100%"
       width="100%"
       id="use593"
       xlink:href="#p"
       y="160"
       x="200" />
    <use
       height="100%"
       width="100%"
       id="use595"
       xlink:href="#p"
       y="168"
       x="200" />
    <use
       height="100%"
       width="100%"
       id="use597"
       xlink:href="#p"
       y="176"
       x="200" />
    <use
       height="100%"
       width="100%"
       id="use599"
       xlink:href="#p"
       y="184"
       x="200" />
    <use
       height="100%"
       width="100%"
       id="use601"
       xlink:href="#p"
       y="192"
       x="200" />
    <use
       height="100%"
       width="100%"
       id="use603"
       xlink:href="#p"
       y="200"
       x="200" />
    <use
       height="100%"
       width="100%"
       id="use605"
       xlink:href="#p"
       y="216"
       x="200" />
    <use
       height="100%"
       width="100%"
       id="use617"
       xlink:href="#p"
       y="96"
       x="208" />
    <use
       height="100%"
       width="100%"
       id="use619"
       xlink:href="#p"
       y="136"
       x="208" />
    <use
       height="100%"
       width="100%"
       id="use621"
       xlink:href="#p"
       y="144"
       x="208" />
    <use
       height="100%"
       width="100%"
       id="use623"
       xlink:href="#p"
       y="160"
       x="208" />
    <use
       height="100%"
       width="100%"
       id="use625"
       xlink:href="#p"
       y="184"
       x="208" />
    <use
       height="100%"
       width="100%"
       id="use627"
       xlink:href="#p"
       y="200"
       x="208" />
    <use
       height="100%"
       width="100%"
       id="use629"
       xlink:href="#p"
       y="208"
       x="208" />
    <use
       height="100%"
       width="100%"
       id="use635"
       xlink:href="#p"
       y="96"
       x="216" />
    <use
       height="100%"
       width="100%"
       id="use637"
       xlink:href="#p"
       y="112"
       x="216" />
    <use
       height="100%"
       width="100%"
       id="use639"
       xlink:href="#p"
       y="128"
       x="216" />
    <use
       height="100%"
       width="100%"
       id="use641"
       xlink:href="#p"
       y="152"
       x="216" />
    <use
       height="100%"
       width="100%"
       id="use643"
       xlink:href="#p"
       y="176"
       x="216" />
    <use
       height="100%"
       width="100%"
       id="use645"
       xlink:href="#p"
       y="184"
       x="216" />
    <use
       height="100%"
       width="100%"
       id="use647"
       xlink:href="#p"
       y="224"
       x="216" />
    <use
       height="100%"
       width="100%"
       id="use663"
       xlink:href="#p"
       y="104"
       x="224" />
    <use
       height="100%"
       width="100%"
       id="use665"
       xlink:href="#p"
       y="112"
       x="224" />
    <use
       height="100%"
       width="100%"
       id="use667"
       xlink:href="#p"
       y="128"
       x="224" />
    <use
       height="100%"
       width="100%"
       id="use669"
       xlink:href="#p"
       y="136"
       x="224" />
    <use
       height="100%"
       width="100%"
       id="use671"
       xlink:href="#p"
       y="144"
       x="224" />
    <use
       height="100%"
       width="100%"
       id="use673"
       xlink:href="#p"
       y="168"
       x="224" />
    <use
       height="100%"
       width="100%"
       id="use675"
       xlink:href="#p"
       y="176"
       x="224" />
    <use
       height="100%"
       width="100%"
       id="use677"
       xlink:href="#p"
       y="184"
       x="224" />
    <use
       height="100%"
       width="100%"
       id="use679"
       xlink:href="#p"
       y="208"
       x="224" />
    <use
       height="100%"
       width="100%"
       id="use681"
       xlink:href="#p"
       y="224"
       x="224" />
  </g>
  <path
     style="fill:none"
     d="M 160.5934,-38.90535 160.5587,71.45 l 111.20382,0 c 22.43563,0 40.6875,-18.63162 40.6875,-41.5338 l 0,-110.3662 -111.1474,0 c -22.44648,0 -40.7092,18.63162 -40.7092,41.54465 z"
     id="path2637" />
  <path
     d="m 193.45856,31.994959 -10.92336,0 c -0.56184,0 -1.10688,0.07128 -1.62504,0.210001 -1.1472,0.30144 -2.16984,0.910559 -2.98056,1.73664 -0.14808,0.14904 -0.28944,0.308159 -0.42048,0.470399 -0.93192,1.14408 -1.4904,2.61672 -1.4904,4.21464 l -0.006,17.368321 17.44655,0 c 3.59305,0 6.51313,-2.975281 6.51313,-6.631201 l 0,-10.73376 0,-0.0034 0.0403,-6.62808 c 0,0 -4.30632,-0.0036 -6.55344,-0.0036 z M 197.1,16 178.9168,16 c -10.4272,0 -18.9056,8.579199 -18.9056,19.1184 L 160,72 197.1,72 C 207.5216,72 216,63.4208 216,52.881599 L 216,35.1184 216,16 197.1,16 Z m 10.5,36.881599 C 207.6,58.79184 202.88984,63.6 197.1,63.6 l -28.69776,0 0.009,-28.478801 c 0,-5.91304 4.71296,-10.7212 10.5056,-10.7212 l 28.6832,0 0,28.4816 z"
     style="fill:#000000"
     id="path2667" />
  <use
     height="100%"
     width="100%"
     transform="translate(-144,144)"
     id="use4881"
     xlink:href="#path2667"
     y="0"
     x="0" />
  <use
     x="0"
     y="0"
     xlink:href="#path2667"
     id="use4883"
     transform="matrix(0,1,-1,0,88,-144)"
     width="100%"
     height="100%" />
</svg>
